<?xml version="1.0" encoding="UTF-8" standalone="no"?>
<svg
   xmlns:dc="http://purl.org/dc/elements/1.1/"
   xmlns:cc="http://creativecommons.org/ns#"
   xmlns:rdf="http://www.w3.org/1999/02/22-rdf-syntax-ns#"
   xmlns:svg="http://www.w3.org/2000/svg"
   xmlns="http://www.w3.org/2000/svg"
   id="svg12"
   version="1.1"
   width="32"
   height="32">
  <metadata
     id="metadata18">
    <rdf:RDF>
      <cc:Work
         rdf:about="">
        <dc:format>image/svg+xml</dc:format>
        <dc:type
           rdf:resource="http://purl.org/dc/dcmitype/StillImage" />
        <dc:title></dc:title>
      </cc:Work>
    </rdf:RDF>
  </metadata>
  <defs
     id="defs16" />
  <g
     transform="matrix(0.04787789,0,0,0.04787789,0.47458735,6.3146662)"
     id="g11"
     style="clip-rule:evenodd;fill-rule:evenodd;stroke-linejoin:round;stroke-miterlimit:1.41420996">
    <path
       id="path5"
       style="fill-rule:nonzero"
       d="m 5.928,287.47 c 0,0 -32.938,122.339 56.465,122.339 61.171,0 84.698,-56.463 84.698,-56.463 l 327.86,-71.618 c 0,0 45.768,54.82 128.965,18.256 62.872,-27.632 66.879,-94.508 15.216,-181.008 C 580.985,55.101 528.228,0.44 528.228,0.44 c 0,0 89.406,136.457 89.406,207.038 0,37.643 -28.235,51.759 -42.352,56.465 -18.404,6.135 -51.76,9.411 -79.99,-18.822 l -376.434,89.403 c 0,0 -32.938,61.171 -79.992,42.349 C -8.188,358.051 5.928,287.47 5.928,287.47 Z" />
    <path
       id="path7"
       style="fill-rule:nonzero"
       d="M 118.68,132.699 58.31,304.52 c -0.27,0.77 0.413,1.537 1.208,1.356 l 50.538,-11.464 c 0.366,-0.083 0.659,-0.357 0.766,-0.717 l 25.495,-85.971 19.132,75.648 c 0.139,0.551 0.696,0.887 1.249,0.754 l 62.688,-15.091 c 0.623,-0.151 0.962,-0.823 0.713,-1.413 l -35.365,-83.671 56.362,-84.665 c 0.534,-0.802 -0.218,-1.835 -1.145,-1.574 l -44.858,12.656 c -0.225,0.064 -0.422,0.201 -0.559,0.39 l -49.658,68.591 17.194,-57.763 c 0.233,-0.784 -0.49,-1.517 -1.278,-1.294 l -41.417,11.753 c -0.324,0.091 -0.584,0.335 -0.695,0.654 z" />
    <path
       id="path9"
       style="fill-rule:nonzero"
       d="m 434.121,136.897 33.037,-57.066 18.21,43.092 z m -106.022,64.574 -46.325,12.122 c -10.967,3.225 -20.672,-2.322 -20.672,-13.753 l 0.213,-29.332 60.777,-16.792 c 8.414,-2.104 16.773,3.624 17.849,12.23 l 3.65,15.966 c 1.25,9.994 -5.83,16.717 -15.492,19.559 z M 475.331,30.535 454.835,36.391 c -2.47,0.706 -4.624,2.233 -6.108,4.329 L 372.95,155.718 c 0,0 -3.068,-18.745 -13.715,-26.73 -16.295,-12.221 -33.603,-7.065 -54.738,-1.519 -1.671,0.438 -43.182,12.783 -43.182,12.783 0.569,-7.102 5.256,-14.488 14.868,-19.886 8.885,-4.99 23.056,-10.888 33.297,-13.448 l 43.821,-10.931 c 0.787,-0.197 1.302,-0.953 1.195,-1.757 l -4.831,-26.084 c -0.127,-0.965 -1.082,-1.591 -2.018,-1.325 l -60.095,17.115 c -48.055,13.73 -56.538,39.523 -62.331,78.039 -1.849,12.289 -3.102,24.661 -3.84,37.067 l -1.277,21.473 c 0,27.278 21.702,44.387 48.226,38.022 l 68.078,-16.219 c 27.957,-6.71 48.636,-25.037 45.953,-53.662 5.8,0.547 11.652,0.058 17.282,-1.445 l 101.349,-26.978 16.202,38.108 c 0.551,1.29 1.945,2.003 3.312,1.692 l 46.354,-10.532 c 1.868,-0.425 2.819,-2.514 1.911,-4.201 L 488.334,35.981 c -2.527,-4.633 -7.928,-6.896 -13.003,-5.446 z" />
  </g>
</svg>
