<svg xmlns="http://www.w3.org/2000/svg" width="32" height="32"><g clip-rule="evenodd" fill-rule="nonzero" stroke-linejoin="round" stroke-miterlimit="1.414"><path d="M.758 20.078s-1.577 5.857 2.704 5.857c2.929 0 4.055-2.703 4.055-2.703l15.697-3.429s2.192 2.625 6.175.874c3.01-1.323 3.202-4.525.728-8.666-1.826-3.058-4.352-5.675-4.352-5.675s4.28 6.533 4.28 9.912c0 1.803-1.351 2.478-2.027 2.704-.881.293-2.478.45-3.83-.901L6.165 22.33s-1.577 2.929-3.83 2.028c-2.252-.902-1.577-4.28-1.577-4.28z"/><path d="M6.157 12.668l-2.89 8.226a.05.05 0 0 0 .057.065l2.42-.549a.05.05 0 0 0 .037-.034L7 16.26l.916 3.622a.05.05 0 0 0 .06.036l3.001-.723a.05.05 0 0 0 .034-.067L9.32 15.122l2.699-4.054a.05.05 0 0 0-.055-.075l-2.148.606a.05.05 0 0 0-.027.019l-2.377 3.284.823-2.766a.05.05 0 0 0-.061-.062l-1.983.563a.05.05 0 0 0-.033.031z"/><path d="M21.26 12.869l1.581-2.732.872 2.063zm-5.077 3.092l-2.218.58c-.525.154-.99-.111-.99-.658l.01-1.405 2.91-.804c.404-.1.804.174.855.586l.175.764c.06.479-.28.8-.742.937zm7.05-8.184l-.982.28a.54.54 0 0 0-.292.207L18.33 13.77s-.147-.897-.657-1.28c-.78-.585-1.609-.338-2.62-.072-.08.02-2.068.612-2.068.612.027-.34.251-.694.712-.952a7.478 7.478 0 0 1 1.594-.644l2.098-.524a.076.076 0 0 0 .057-.084l-.231-1.249a.076.076 0 0 0-.097-.063l-2.877.82c-2.3.657-2.707 1.892-2.984 3.736-.089.588-.149 1.18-.184 1.774l-.061 1.028c0 1.306 1.039 2.126 2.309 1.82l3.26-.776c1.338-.32 2.328-1.198 2.2-2.569.277.026.557.003.827-.07l4.852-1.29.776 1.824a.139.139 0 0 0 .158.08l2.22-.503c.09-.02.135-.12.091-.202l-3.851-7.149a.54.54 0 0 0-.623-.26z"/></g></svg>