<svg xmlns="http://www.w3.org/2000/svg" height="32" width="32"><g transform="matrix(.17589 0 0 .17589 -15.225 -12.114)" clip-rule="evenodd" fill-rule="evenodd"><circle cx="178.106" cy="192.199" r="15.552" fill="#0a1b18"/><path d="M265.551 150.53l-74.074-72.633v23.475l54.12 53.853c2.348 2.347 2.348 5.869 0 8.217l-63.383 63.382c-2.347 2.348-5.869 2.348-8.216 0l-63.384-63.382c-2.347-2.348-2.347-5.87 0-8.217l61.036-61.036v13.447a15.472 15.472 0 0 1 14.085.592v-36.34c-4.695-4.695-11.737-4.695-16.433 0L90.661 150.53c-4.695 4.695-4.695 12.912 0 17.606l78.642 78.641c4.695 4.695 12.911 4.695 17.606 0l78.642-78.641c4.695-4.694 4.695-12.911 0-17.606z" fill="#0a1b18"/><path d="M178.106 110.916c-8.59 0-15.553 6.963-15.553 15.553s6.963 15.552 15.553 15.552c8.589 0 15.552-6.962 15.552-15.552s-6.963-15.553-15.552-15.553zm0 24.795a9.244 9.244 0 1 1 9.243-9.243 9.243 9.243 0 0 1-9.243 9.243z" fill="#0a1b18"/><circle cx="178.106" cy="126.469" r="7.098" fill="#5ac5b5"/></g></svg>